<!-- icon666.com - MILLIONS OF FREE VECTOR ICONS --><svg id="Layer_1" enable-background="new 0 0 26 26" viewBox="0 0 26 26" xmlns="http://www.w3.org/2000/svg"><g id="_x37_70"><path d="m1.8683999 3.4527588h1.6630859c.4902346 0 .9218752.3476563 1.0371096.8662109 3.4604716 16.112793 2.2669511 10.5554705 2.5251465 11.7576904.1400146.8699951.8900146 1.5100098 1.7800288 1.5100098h12.29004c.8499756 0 1.5899658-.6100464 1.75-1.3900146l2.1799316-8.4700317c.2293415-1.1038661-.6110516-2.1699829-1.7700195-2.1699829h-16.3610844l-.4506836-1.7073975c-.3056641-1.3886719-1.5595703-2.3964844-2.980469-2.3964844h-1.6630859c-.5527344 0-1 .4472656-1 1s.4472656 1 1 1zm14.8953864 6.6038818c0-.5499878.4500732-1 1-1s1 .4500122 1 1v3.0300293c0 .5499878-.4500732 1-1 1s-1-.4500122-1-1zm-5.2000742 0c0-.5499878.4500732-1 1-1 .5500488 0 1 .4500122 1 1v3.0300293c0 .5499878-.4499512 1-1 1-.5499268 0-1-.4500122-1-1z" fill="#000000" style="fill: rgb(222, 87, 200);"></path><circle cx="11.465" cy="21.797" r="2.75" fill="#000000" style="fill: rgb(222, 87, 200);"></circle><circle cx="19.045" cy="21.797" r="2.75" fill="#000000" style="fill: rgb(222, 87, 200);"></circle></g></svg>