<!-- icon666.com - MILLIONS OF FREE VECTOR ICONS --><svg id="Layer_1" viewBox="0 0 512 512" xmlns="http://www.w3.org/2000/svg" data-name="Layer 1"><path d="m344.2045 309.4879a8.0384 8.0384 0 0 0 -5.3619 2.0235q-2.2072 1.7124-2.2072 12.94v3.7393l.4726.4648h13.7205l.4726-.4648v-9.1944q0-9.5155-7.0966-9.5088zm-59.7683-.3144a9.462 9.462 0 0 0 -7.4119 3.7392v54.0928q3.6273 3.8966 7.4119 3.8965h1.4193q4.89 0 4.8886-7.4854v-45.9785q-.6308-8.2646-6.3079-8.2646zm-86.578-12.626h16.243v66.7188q0 5.7627 3.6265 5.7627h1.1049q3.7849 0 9.4618-6.542v-65.94h16.4011v86.981h-16.4011v-9.3516h-.1573q-9.7784 10.5923-18.9244 10.5957h-.3153a9.6366 9.6366 0 0 1 -8.2006-4.0537q-2.839-2.953-2.8386-17.3018zm145.8738-2.0234h1.7346q22.71 0 22.709 27.2754v20.1113h-31.0676l-.4726.4648v14.9644q0 13.4019 6.466 13.4053h1.4186a8.7 8.7 0 0 0 4.2588-1.2442q2.5224-1.8764 2.5225-10.2881v-6.706h16.8745v3.7392q0 10.2949-1.8919 15.4356-5.2052 14.1811-22.5517 14.1846a25.9191 25.9191 0 0 1 -9.9352-1.8731q-13.721-6.2343-13.7206-24.001v-40.688a29.6388 29.6388 0 0 1 1.8927-10.288q7.0958-14.4888 21.7631-14.4922zm-82.9507-28.8409h16.243v37.7276h.3145q7.097-7.957 14.3512-7.95 15.9282 0 15.9286 22.4424v47.7011a41.1812 41.1812 0 0 1 -.9468 8.4151q-3.6273 10.4385-12.7738 10.4453h-2.208q-7.7263 0-14.3512-7.1709h-.3145v6.2344h-16.243zm-119.223 0h56.4571v16.8368h-18.6083l-.4725.4648v100.5432h-18.2938v-100.543l-.4734-.4648h-18.6091zm100.4566-30.55q-34.5377 0-58.6651.9366-31.2258.6255-33.7473 2.3379-14.9823 5.1474-21.764 16.3652-4.7295 9.0439-5.2038 12.626-2.3661 25.4091-2.3652 52.999v8.8867q0 23.2251 1.4193 40.0586 0 22.4459 12.3 32.8877 10.0936 8.89 20.501 10.2881 38.1638 2.184 87.9973 2.1807h25.39q41.1593 0 72.5422-1.4014 18.4518 0 26.021-4.0537 14.981-7.6392 20.1856-22.6 2.5225-4.2144 3.4693-55.6514v-12.1532q0-22.7637-1.4193-37.8779 0-22.4458-11.3545-32.58-6.7818-7.9469-21.4478-11.2246-37.8485-2.02-87.8392-2.0235zm11.158-87.6025 2.9967.4717q4.2593 1.7124 4.2579 6.8564v45.0489q0 8.7259-7.0957 8.73h-.1589q-6.4652 0-6.4651-7.0137v-48.0091q0-5.3013 6.4651-6.084zm38.3223-13.0907-.4734.4648v70.9229a41.33 41.33 0 0 0 .9467 9.3515q2.5225 7.957 10.565 7.95 8.99 0 18.7672-10.5957v8.7295l.4725.4649h15.7705l.4734-.4649v-86.3581l-.4734-.4648h-15.7705l-.4725.4648v65.7823q-5.6781 6.2343-9.3046 6.2343h-.6306q-3.7849 0-3.7845-7.0136v-65.003l-.4734-.4648zm-38.3223-2.03q-9.7758 0-15.9269 5.1475-7.7276 4.83-7.728 20.5761v37.4064a75.0045 75.0045 0 0 0 .6315 10.76q5.0462 17.77 23.1823 17.7666l7.8844-.9366q16.0858-5.1372 16.0858-22.4423v-46.6077a19.7483 19.7483 0 0 0 -1.42-7.6357q-5.9909-14.0376-21.2888-14.0342zm-84.2119-28.834-.3153.3145 2.6814 9.0371q19.0812 60.7954 19.0816 62.9726v45.3633l.4734.4649h17.82l.4734-.4649v-47.5441q0-1.4047 21.4477-69.8291h-.158l-.3153-.3145h-18.4515l-11.3545 47.0723h-1.1039q-5.2052-21.82-9.3046-36.3193-2.366-10.7563-2.9958-10.753zm86.2217-92.2373c136.8554 0 247.8 110.9473 247.8 247.8028s-110.9447 247.7959-247.8 247.7959-247.8-110.9405-247.8-247.7959 110.9438-247.8028 247.8-247.8028z" fill-rule="evenodd" fill="#000000" style="fill: rgb(222, 87, 200);"></path></svg>